<svg width="37" height="27" viewBox="0 0 37 27" fill="none" xmlns="http://www.w3.org/2000/svg">
<path d="M26.4271 14.8871C30.528 14.8871 33.8524 11.5545 33.8524 7.44353C33.8524 3.33258 30.528 0 26.4271 0C22.3262 0 19.0017 3.33258 19.0017 7.44353C19.0017 11.5545 22.3262 14.8871 26.4271 14.8871Z" fill="#173781"/>
<path d="M26.427 16.4062C23.6257 16.4063 20.9391 17.5218 18.9583 19.5075C16.9775 21.4931 15.8646 24.1863 15.8646 26.9945H36.9894C36.9894 24.1863 35.8766 21.4931 33.8957 19.5075C31.9149 17.5218 29.2283 16.4062 26.427 16.4062Z" fill="#173781"/>
<path d="M9.36886 12.7271C12.8748 12.7271 15.7168 9.87801 15.7168 6.36353C15.7168 2.84905 12.8748 0 9.36886 0C5.86297 0 3.02087 2.84905 3.02087 6.36353C3.02087 9.87801 5.86297 12.7271 9.36886 12.7271Z" fill="#173781"/>
<path d="M17.523 18.8416C16.5041 17.0364 14.9177 15.62 13.0113 14.8136C11.105 14.0072 8.98596 13.8561 6.98494 14.3838C4.98391 14.9116 3.21347 16.0886 1.94989 17.7311C0.686309 19.3736 0.00067495 21.3892 0 23.4634H14.7134C15.2315 21.7034 16.2002 20.1101 17.523 18.8416Z" fill="#173781"/>
</svg>
