<svg width="22" height="28" viewBox="0 0 22 28" fill="none" xmlns="http://www.w3.org/2000/svg">
<path d="M11.0043 0.111328C9.20542 0.1109 7.43625 0.575693 5.86475 1.4616C4.29325 2.34751 2.97156 3.62514 2.02516 5.1732C1.07875 6.72126 0.539031 8.48838 0.457214 10.3068C0.375397 12.1253 0.754204 13.9347 1.55768 15.5634C2.73285 18.217 5.45629 22.8678 11.4576 27.8891C11.4576 27.8891 19.5757 19.5226 21.0508 14.0708C21.5614 12.4684 21.6905 10.7666 21.4274 9.10408C21.1644 7.44161 20.5167 5.8656 19.5373 4.50462C18.5578 3.14363 17.2742 2.03623 15.7913 1.27273C14.3084 0.509236 12.6681 0.111283 11.0043 0.111328ZM10.7393 15.454C9.8427 15.454 8.96624 15.185 8.22075 14.6809C7.47526 14.1769 6.89421 13.4604 6.5511 12.6222C6.20799 11.784 6.11821 10.8617 6.29313 9.97181C6.46805 9.08196 6.8998 8.26459 7.53379 7.62304C8.16778 6.9815 8.97554 6.5446 9.85491 6.3676C10.7343 6.1906 11.6458 6.28144 12.4741 6.62864C13.3025 6.97584 14.0105 7.56381 14.5086 8.31818C15.0067 9.07256 15.2726 9.95946 15.2726 10.8667C15.2726 12.0834 14.795 13.2502 13.9448 14.1104C13.0947 14.9707 11.9416 15.454 10.7393 15.454Z" fill="#CF3794"/>
</svg>
