<svg id="Layer_1" data-name="Layer 1" xmlns="http://www.w3.org/2000/svg" width="410.93" height="225.43" viewBox="0 0 410.93 225.43">
  <defs>
    <style>
      .cls-1 {
        fill: #173781;
      }

      .cls-2 {
        fill: #cf3794;
      }

      .cls-3 {
        fill: #e9375a;
      }
    </style>
  </defs>
  <path class="cls-1" d="M170.4,121.53a34.86,34.86,0,0,1,69.21,0h15a49.81,49.81,0,0,0-99.25,0Z"/>
  <path class="cls-2" d="M239.64,129.83a34.87,34.87,0,0,1-69.27,0h-15a49.81,49.81,0,0,0,99.29,0Z"/>
  <path class="cls-1" d="M276.68,121.53A34.87,34.87,0,0,1,336,101.13l10.56-10.57a49.81,49.81,0,0,0-84.85,31Z"/>
  <path class="cls-2" d="M311.29,160.66a34.88,34.88,0,0,1-34.64-30.83h-15A49.81,49.81,0,0,0,346.51,161L336,150.45A34.78,34.78,0,0,1,311.29,160.66Z"/>
  <path class="cls-1" d="M64.11,121.53a34.87,34.87,0,0,1,69.22,0h15.21V38.17H133.59V90.22a49.8,49.8,0,0,0-84.5,31.31Z"/>
  <path class="cls-2" d="M148.38,129.83h-15a34.86,34.86,0,0,1-69.26,0h-15a49.8,49.8,0,0,0,79.18,36.07l9.71,9.71L148.54,165l-9.71-9.71A49.61,49.61,0,0,0,148.38,129.83Z"/>
  <polygon class="cls-3" points="361.11 121.72 352.8 121.72 352.8 113.41 344.5 113.41 344.5 121.72 336.2 121.72 336.2 130.02 344.5 130.02 344.5 138.32 352.8 138.32 352.8 130.02 361.11 130.02 361.11 121.72"/>
</svg>
