<svg id="Layer_1" data-name="Layer 1" xmlns="http://www.w3.org/2000/svg" width="226.27" height="225.43" viewBox="0 0 226.27 225.43">
  <defs>
    <style>
      .cls-1 {
        fill: #fff;
      }
    </style>
  </defs>
  <g>
    <path class="cls-1" d="M78.62,127.28a34.68,34.68,0,0,1,68.85,0h15.14V44.35H147.74V96.13a49.54,49.54,0,0,0-84.06,31.15Z"/>
    <path class="cls-1" d="M162.45,135.54H147.5a34.69,34.69,0,0,1-68.91,0H63.66a49.55,49.55,0,0,0,78.78,35.88l9.65,9.66,10.52-10.52L153,160.91A49.36,49.36,0,0,0,162.45,135.54Z"/>
    <polygon class="cls-1" points="125.52 127.47 117.26 127.47 117.26 119.21 109 119.21 109 127.47 100.74 127.47 100.74 135.73 109 135.73 109 143.99 117.26 143.99 117.26 135.73 125.52 135.73 125.52 127.47"/>
  </g>
</svg>
