<svg width="57" height="55" viewBox="0 0 57 55" fill="none" xmlns="http://www.w3.org/2000/svg">
<g clip-path="url(#clip0_1_42)">
<path d="M54.5502 24.17C54.2125 24.1741 53.8839 24.0611 53.6202 23.8501L28.0102 3.38005L2.44019 23.8C2.28813 23.936 2.10996 24.0395 1.91654 24.1042C1.72312 24.169 1.51853 24.1936 1.31528 24.1766C1.11203 24.1596 0.914369 24.1013 0.734409 24.0053C0.554449 23.9093 0.395983 23.7776 0.26865 23.6182C0.141317 23.4589 0.0477895 23.2753 -0.00616108 23.0786C-0.0601117 22.8819 -0.0733579 22.6762 -0.045132 22.4742C-0.0169061 22.2722 0.0522219 22.0781 0.158023 21.9037C0.263825 21.7294 0.404062 21.5784 0.570194 21.4601L27.0702 0.380051C27.3358 0.168298 27.6655 0.0529785 28.0052 0.0529785C28.3449 0.0529785 28.6746 0.168298 28.9402 0.380051L55.4902 21.55C55.7326 21.7445 55.9086 22.0095 55.9939 22.3083C56.0792 22.6071 56.0696 22.925 55.9664 23.2182C55.8632 23.5113 55.6715 23.7651 55.4178 23.9446C55.1641 24.1241 54.861 24.2203 54.5502 24.22V24.17Z" fill="white"/>
<path d="M28.0298 54.6601C22.195 54.6601 16.5992 52.3423 12.4734 48.2165C8.34765 44.0907 6.02979 38.4949 6.02979 32.6601V25.6101C6.02979 25.2123 6.18784 24.8308 6.46915 24.5495C6.75045 24.2681 7.13196 24.1101 7.52979 24.1101C7.92761 24.1101 8.30915 24.2681 8.59045 24.5495C8.87176 24.8308 9.02979 25.2123 9.02979 25.6101V32.6601C8.89762 35.2339 9.29047 37.8076 10.1844 40.2248C11.0783 42.642 12.4546 44.852 14.2296 46.7205C16.0046 48.5889 18.1411 50.0768 20.5093 51.0935C22.8774 52.1102 25.4276 52.6345 28.0048 52.6345C30.582 52.6345 33.1322 52.1102 35.5003 51.0935C37.8685 50.0768 40.005 48.5889 41.78 46.7205C43.555 44.852 44.9313 42.642 45.8252 40.2248C46.7191 37.8076 47.112 35.2339 46.9798 32.6601V25.6101C46.9798 25.2123 47.1378 24.8308 47.4191 24.5495C47.7004 24.2681 48.082 24.1101 48.4798 24.1101C48.8776 24.1101 49.2592 24.2681 49.5405 24.5495C49.8218 24.8308 49.9798 25.2123 49.9798 25.6101V32.6601C49.9798 38.4862 47.6688 44.0744 43.5538 48.1988C39.4388 52.3232 33.8559 54.6469 28.0298 54.6601V54.6601Z" fill="white"/>
<path d="M34.6802 27.3801H41.6002C41.3774 25.6383 40.5728 24.0229 39.3167 22.7958C38.0605 21.5687 36.4267 20.802 34.6802 20.6201V27.3801Z" fill="white"/>
<path d="M33.0802 27.3801V20.5801C31.3336 20.762 29.6998 21.5287 28.4437 22.7558C27.1876 23.9828 26.3829 25.5983 26.1602 27.3401L33.0802 27.3801Z" fill="white"/>
<path d="M33.0801 28.9502H26.0801C26.2282 30.7689 27.0101 32.4779 28.2894 33.7791C29.5687 35.0803 31.2641 35.8912 33.0801 36.0702V28.9502Z" fill="white"/>
<path d="M34.6802 28.9502V36.0702C36.4961 35.8912 38.1916 35.0803 39.4709 33.7791C40.7501 32.4779 41.532 30.7689 41.6802 28.9502H34.6802Z" fill="white"/>
</g>
<defs>
<clipPath id="clip0_1_42">
<rect width="56.05" height="54.66" fill="white"/>
</clipPath>
</defs>
</svg>
